<svg width="21" height="20" viewBox="0 0 21 20" fill="none" xmlns="http://www.w3.org/2000/svg">
<path d="M19.4062 10.2031C19.4062 15.2859 15.2859 19.4062 10.2031 19.4062C5.12037 19.4062 1 15.2859 1 10.2031C1 5.12037 5.12037 1 10.2031 1C15.2859 1 19.4062 5.12037 19.4062 10.2031ZM9.13861 15.0761L15.9667 8.24798C16.1986 8.01612 16.1986 7.64017 15.9667 7.40831L15.1271 6.56863C14.8952 6.33674 14.5192 6.33674 14.2873 6.56863L8.71875 12.1372L6.1189 9.53735C5.88704 9.30549 5.51109 9.30549 5.27919 9.53735L4.43952 10.377C4.20766 10.6089 4.20766 10.9848 4.43952 11.2167L8.29889 15.0761C8.53079 15.308 8.90671 15.308 9.13861 15.0761V15.0761Z" fill="#FFE400"/>
</svg>
