<svg width="160" height="131" viewBox="0 0 160 131" fill="none" xmlns="http://www.w3.org/2000/svg">
<g opacity="0.25">
<path d="M55.1842 77.9014C55.1842 84.868 60.83 90.5158 67.7966 90.5179C74.7631 90.5179 80.411 84.8722 80.413 77.9056C80.413 76.4191 81.6179 75.2142 83.1044 75.2142C84.5909 75.2142 85.7958 76.4191 85.7958 77.9056C85.7958 87.8451 77.7382 95.9028 67.7986 95.9028C57.8591 95.9028 49.8014 87.8451 49.8014 77.9056C49.8076 67.9681 57.8632 59.9125 67.8007 59.9063C69.2872 59.9063 70.4921 61.1112 70.4921 62.5977C70.4921 64.0842 69.2872 65.2891 67.8007 65.2891C60.8341 65.2891 55.1884 70.9348 55.1863 77.9014H55.1842ZM101.371 81.9095L95.7375 82.8971C94.7065 83.0772 93.8742 83.8391 93.603 84.8494C93.0026 87.0791 92.1144 89.2198 90.9592 91.2197C90.4333 92.1286 90.483 93.259 91.0876 94.1182L94.3752 98.8033C94.8348 99.4554 94.7582 100.346 94.193 100.909L90.8143 104.288C90.2512 104.853 89.363 104.929 88.7108 104.472L84.0257 101.184C83.1665 100.58 82.0362 100.53 81.1273 101.056C79.1274 102.211 76.9867 103.099 74.7569 103.7C73.7466 103.971 72.9848 104.803 72.8046 105.834L71.8047 111.461C71.668 112.248 70.9848 112.819 70.1878 112.819H65.4074C64.6103 112.819 63.9271 112.246 63.7905 111.461L62.803 105.83C62.6228 104.799 61.861 103.967 60.8507 103.695C58.6209 103.095 56.4782 102.207 54.4782 101.052C53.5694 100.526 52.439 100.575 51.5798 101.18L46.903 104.466C46.2508 104.925 45.3606 104.849 44.7975 104.283L41.4187 100.905C40.8556 100.342 40.7769 99.4534 41.2345 98.8012L44.5221 94.1161C45.1266 93.2569 45.1763 92.1265 44.6505 91.2177C43.4952 89.2177 42.6071 87.077 42.0067 84.8473C41.7355 83.837 40.9032 83.0751 39.8722 82.895L34.2409 81.9075C33.4563 81.7708 32.8849 81.0918 32.8828 80.2947V75.5143C32.8828 74.7173 33.4542 74.0341 34.2409 73.8974L39.8722 72.9099C40.9032 72.7298 41.7355 71.9679 42.0067 70.9576C42.6071 68.7258 43.4952 66.583 44.6505 64.581C45.1763 63.6722 45.1266 62.5418 44.5221 61.6826L41.2365 57.012C40.7769 56.3598 40.8535 55.4696 41.4187 54.9065L44.7995 51.5257C45.3627 50.9625 46.2508 50.8839 46.903 51.3435L51.5881 54.6311C52.4473 55.2357 53.5777 55.2853 54.4865 54.7595C56.4864 53.6042 58.6292 52.7161 60.8589 52.1157C61.8693 51.8445 62.6311 51.0122 62.8112 49.9812L63.7988 44.35C64.0555 42.8862 63.0762 41.4909 61.6125 41.2341C60.1488 40.9774 58.7534 41.9567 58.4967 43.4204L57.7969 47.4161C56.2628 47.9233 54.7681 48.5465 53.3271 49.2794L50.0043 46.9482C47.2135 44.9835 43.4124 45.3147 41.0026 47.7328L37.6114 51.1012C35.1954 53.5111 34.8662 57.3122 36.8288 60.103L39.16 63.4258C38.4271 64.8667 37.8039 66.3615 37.2967 67.8977L33.301 68.5974C29.943 69.1854 27.4959 72.1045 27.5 75.5143V80.2947C27.4959 83.7066 29.9471 86.6278 33.3093 87.2137L37.305 87.9155C37.8122 89.4496 38.4354 90.9444 39.1683 92.3853L36.8288 95.7082C34.8662 98.501 35.1974 102.3 37.6135 104.71L40.9943 108.089C43.4041 110.505 47.2052 110.836 49.996 108.871L53.3085 106.54C54.7494 107.273 56.2442 107.896 57.7783 108.403L58.4781 112.399C59.0681 115.761 61.9935 118.212 65.4074 118.202H70.1878C73.6017 118.206 76.5208 115.753 77.1067 112.391L77.8086 108.395C79.3427 107.888 80.8374 107.265 82.2784 106.532L85.6033 108.863C88.3941 110.826 92.1952 110.494 94.605 108.078L97.9858 104.697C100.402 102.288 100.733 98.4886 98.7705 95.6957L96.4414 92.3832C97.1743 90.9423 97.7974 89.4475 98.3047 87.9134L102.3 87.2116C103.764 86.9549 104.743 85.5595 104.487 84.0958C104.23 82.6321 102.834 81.6528 101.371 81.9095ZM133.5 42.6482V46.4141C133.5 49.3746 131.374 51.9066 128.459 52.42L125.643 52.9148C125.291 53.9293 124.877 54.921 124.401 55.8857L126.047 58.2355C127.751 60.6619 127.463 63.962 125.364 66.0572L122.699 68.7217C120.604 70.8251 117.296 71.1149 114.867 69.4049L112.534 67.7528C111.571 68.2269 110.577 68.643 109.563 68.9949L109.07 71.8085C108.565 74.7318 106.029 76.8683 103.062 76.8683H99.2963C96.3296 76.8704 93.7914 74.7401 93.2821 71.8188L92.7873 69.0032C91.7708 68.6513 90.7791 68.2351 89.8164 67.761L87.4687 69.4028C85.0422 71.1087 81.738 70.823 79.6429 68.7217L76.9805 66.0592C74.8832 63.962 74.5975 60.6599 76.3035 58.2355L77.9473 55.894C77.4711 54.9292 77.0571 53.9376 76.7051 52.9231L73.8915 52.4304C70.9683 51.919 68.8358 49.3787 68.8421 46.412V42.6461C68.8379 39.6793 70.9683 37.1411 73.8915 36.6318L76.6968 36.1474C77.0488 35.1309 77.4628 34.1392 77.939 33.1765L76.2972 30.835C74.5872 28.4065 74.8749 25.0981 76.9805 23.003L79.6429 20.3364C81.738 18.235 85.0402 17.9473 87.4666 19.6553L89.8081 21.3115C90.7708 20.8354 91.7625 20.4192 92.779 20.0693L93.2738 17.2537C93.7831 14.3304 96.3213 12.198 99.2881 12.2022H103.054C106.021 12.196 108.561 14.3284 109.07 17.2517L109.555 20.0549C110.569 20.4047 111.563 20.8209 112.526 21.297L114.867 19.6553C117.296 17.9452 120.602 18.233 122.699 20.3385L125.366 23.0113C127.465 25.1064 127.753 28.4086 126.047 30.835L124.391 33.1682C124.867 34.1309 125.281 35.1226 125.633 36.1391L128.448 36.6318C131.372 37.1391 133.504 39.6793 133.5 42.6482ZM108.646 44.5321C108.646 40.4019 105.298 37.0563 101.17 37.0563V37.0459C97.0397 37.05 93.692 40.3998 93.6941 44.5321C93.6941 48.6603 97.0418 52.008 101.17 52.008C105.298 52.008 108.646 48.6603 108.646 44.5321Z" fill="white"/>
</g>
</svg>
