<svg width="16" height="18" viewBox="0 0 16 18" fill="none" xmlns="http://www.w3.org/2000/svg">
<g clip-path="url(#clip0_293_6192)">
<path fill-rule="evenodd" clip-rule="evenodd" d="M8 0.666748C5.69881 0.666748 3.83333 2.53223 3.83333 4.83342C3.83333 7.1346 5.69881 9.00008 8 9.00008C10.3012 9.00008 12.1667 7.1346 12.1667 4.83342C12.1667 2.53223 10.3012 0.666748 8 0.666748ZM5.5 4.83342C5.5 3.4527 6.61929 2.33341 8 2.33341C9.38071 2.33341 10.5 3.4527 10.5 4.83342C10.5 6.21413 9.38071 7.33342 8 7.33342C6.61929 7.33342 5.5 6.21413 5.5 4.83342Z" fill="#FFE400"/>
<path d="M4.66667 10.6667C3.5616 10.6667 2.50179 11.1057 1.72039 11.8871C0.938987 12.6685 0.5 13.7283 0.5 14.8334V16.5001C0.5 16.9603 0.873096 17.3334 1.33333 17.3334C1.79357 17.3334 2.16667 16.9603 2.16667 16.5001V14.8334C2.16667 14.1704 2.43006 13.5345 2.8989 13.0656C3.36774 12.5968 4.00363 12.3334 4.66667 12.3334H11.3333C11.9964 12.3334 12.6323 12.5968 13.1011 13.0656C13.5699 13.5345 13.8333 14.1704 13.8333 14.8334V16.5001C13.8333 16.9603 14.2064 17.3334 14.6667 17.3334C15.1269 17.3334 15.5 16.9603 15.5 16.5001V14.8334C15.5 13.7283 15.061 12.6685 14.2796 11.8871C13.4982 11.1057 12.4384 10.6667 11.3333 10.6667H4.66667Z" fill="#FFE400"/>
</g>
<defs>
<clipPath id="clip0_293_6192">
<rect width="16" height="18" fill="white"/>
</clipPath>
</defs>
</svg>
