<svg width="160" height="131" viewBox="0 0 160 131" fill="none" xmlns="http://www.w3.org/2000/svg">
<g opacity="0.25">
<path d="M56.9593 90.8148V39.5895C56.9593 38.1765 55.811 37.0282 54.398 37.0282H28.5613C27.1504 37.0282 26 38.1765 26 39.5895V90.8148C26 92.2256 27.1504 93.3761 28.5613 93.3761H54.398C55.811 93.3761 56.9593 92.2256 56.9593 90.8148ZM39.0304 88.2535H31.1225V80.5591H39.0304V88.2535ZM39.0304 49.8346H31.1225V42.1508H39.0304V49.8346ZM51.8368 88.2535H44.153V80.5591H51.8368V88.2535ZM51.8368 49.8346H44.153V42.1508H51.8368V49.8346Z" fill="white"/>
<path d="M131.438 37.0282H80.0103C78.5995 37.0282 77.4491 38.1765 77.4491 39.5895V90.8148C77.4491 92.2256 78.5995 93.3761 80.0103 93.3761H131.438C132.851 93.3761 134 92.2256 134 90.8148V39.5895C134 38.1765 132.851 37.0282 131.438 37.0282ZM90.2554 88.2535H82.5716V80.5591H90.2554V88.2535ZM90.2554 49.8346H82.5716V42.1508H90.2554V49.8346ZM103.062 88.2535H95.3779V80.5591H103.062V88.2535ZM103.062 49.8346H95.3779V42.1508H103.062V49.8346ZM115.868 88.2535H108.184V80.5591H115.868V88.2535ZM115.868 49.8346H108.184V42.1508H115.868V49.8346ZM128.877 88.2535H120.991V80.5591H128.877V88.2535ZM128.877 49.8346H120.991V42.1508H128.877V49.8346Z" fill="white"/>
<path d="M69.7656 96.2361V34.1468L78.7002 24.2304C79.1249 23.7587 79.3597 23.1504 79.3597 22.5165V13.7634C79.3597 12.3504 78.2114 11.2021 76.7984 11.2021H57.5889C56.176 11.2021 55.0277 12.3504 55.0277 13.7634V22.5144C55.0277 23.1483 55.2603 23.7566 55.6851 24.2262L64.6431 34.1916V96.234L55.6872 106.176C55.2624 106.648 55.0277 107.256 55.0277 107.89V116.641C55.0277 118.054 56.176 119.202 57.5889 119.202H76.7984C78.2114 119.202 79.3597 118.054 79.3597 116.641V107.89C79.3597 107.256 79.127 106.648 78.7023 106.178L69.7656 96.2361ZM60.1502 21.5326V16.3247H74.2372V21.5304L67.1851 29.3572L60.1502 21.5326ZM74.2372 114.08H60.1502V108.874L67.2022 101.047L74.2372 108.872V114.08Z" fill="white"/>
</g>
</svg>
