<svg width="160" height="131" viewBox="0 0 160 131" fill="none" xmlns="http://www.w3.org/2000/svg">
<g opacity="0.25">
<path d="M137.385 58.4833L127.907 61.8005V93.7411C127.907 94.9732 127.149 96.0158 126.012 96.3949L80.5176 112.507C80.4229 112.507 80.3281 112.602 80.2333 112.602H79.0012C78.9064 112.602 78.8116 112.507 78.7168 112.507L33.2229 96.3949C32.8437 96.2054 32.4646 96.0158 32.0855 95.7315C31.6116 95.2576 31.3273 94.4993 31.3273 93.7411V61.8953L21.8494 58.578C21.0911 58.2937 20.4277 57.6303 20.1433 56.872C19.859 56.1138 19.9538 55.166 20.4277 54.4078L31.8012 35.4519V35.3572C31.8012 35.2624 31.8959 35.2624 31.8959 35.1676V35.0728C31.9907 34.9781 32.0855 34.8833 32.0855 34.7885L32.1803 34.6937H32.3698C32.4646 34.5989 32.5594 34.5989 32.6542 34.5042H32.8437C32.9385 34.4094 33.0333 34.4094 33.1281 34.4094H33.2229L78.7168 18.2969H78.8116C78.9064 18.2969 79.0012 18.2021 79.096 18.2021H80.2333C80.3281 18.2021 80.4229 18.2021 80.5176 18.2969H80.6124L126.106 34.4094C126.106 34.4094 126.201 34.4094 126.201 34.5042C126.296 34.5042 126.391 34.5989 126.485 34.5989C126.58 34.5989 126.58 34.6937 126.58 34.6937C126.675 34.7885 126.77 34.7885 126.865 34.8833C126.959 34.8833 126.959 34.9781 126.959 34.9781C127.023 35.0412 127.086 35.1044 127.149 35.1676C127.149 35.1676 127.244 35.2624 127.244 35.3572C127.339 35.4519 127.339 35.5467 127.433 35.5467C127.433 35.5467 127.433 35.6415 127.528 35.6415L138.902 54.5973C139.281 55.0712 139.375 56.019 139.091 56.7772C138.807 57.5355 138.238 58.1989 137.385 58.4833ZM82.4132 105.873L122.22 91.7507V63.8857L91.8911 74.5957C91.6068 74.6905 91.2277 74.7853 90.9433 74.7853C89.9955 74.7853 89.0478 74.3114 88.4791 73.3636L82.4132 63.2222V105.873ZM66.9642 68.5299L75.3996 54.5025L35.4028 40.2857L26.9674 54.313L66.9642 68.5299ZM82.4132 24.7419V36.8736C82.4132 38.4849 81.1811 39.717 79.5698 39.717C77.9586 39.717 76.7265 38.4849 76.7265 36.8736V24.7419L42.606 36.8736L79.5698 49.9531L116.534 36.8736L82.4132 24.7419ZM123.832 40.2857L83.8349 54.5025L92.2702 68.5299L132.267 54.313L123.832 40.2857Z" fill="white"/>
</g>
</svg>
