<svg width="160" height="131" viewBox="0 0 160 131" fill="none" xmlns="http://www.w3.org/2000/svg">
<g opacity="0.25">
<path d="M80.5 53.7783C73.9252 53.7783 68.5762 59.1273 68.5762 65.7021C68.5762 72.2769 73.9252 77.626 80.5 77.626C87.0748 77.626 92.4238 72.2769 92.4238 65.7021C92.4238 59.1273 87.0748 53.7783 80.5 53.7783ZM80.5 71.1221C77.5115 71.1221 75.0801 68.6907 75.0801 65.7021C75.0801 62.7136 77.5115 60.2822 80.5 60.2822C83.4885 60.2822 85.9199 62.7136 85.9199 65.7021C85.9199 68.6907 83.4885 71.1221 80.5 71.1221Z" fill="white"/>
<path d="M132.748 62.4502H127.215C126.446 51.1664 121.686 40.6634 113.612 32.5897C105.539 24.5159 95.0356 19.7557 83.752 18.9868V13.4541C83.752 11.6582 82.2959 10.2021 80.5 10.2021C78.7041 10.2021 77.248 11.6582 77.248 13.4541V18.9868C65.9642 19.7557 55.4613 24.5159 47.3875 32.5897C39.3138 40.6634 34.5536 51.1664 33.7846 62.4502H28.252C26.456 62.4502 25 63.9062 25 65.7021C25 67.4981 26.456 68.9541 28.252 68.9541H33.7846C34.5536 80.2379 39.3138 90.7409 47.3875 98.8146C55.4613 106.888 65.9642 111.649 77.248 112.418V117.95C77.248 119.746 78.7041 121.202 80.5 121.202C82.2959 121.202 83.752 119.746 83.752 117.95V112.418C95.0356 111.649 105.539 106.888 113.612 98.8146C121.686 90.7409 126.446 80.2379 127.215 68.9541H132.748C134.544 68.9541 136 67.4981 136 65.7021C136 63.9062 134.544 62.4502 132.748 62.4502ZM120.693 62.4502H114.163C112.624 46.3923 99.8097 33.5781 83.7517 32.0388V25.5095C103.399 27.0848 119.117 42.8034 120.693 62.4502ZM102.396 68.9541H107.622C106.136 81.4223 96.2202 91.3384 83.752 92.8243V87.5986C83.752 85.8027 82.2959 84.3467 80.5 84.3467C78.7041 84.3467 77.248 85.8027 77.248 87.5986V92.8243C64.7798 91.3384 54.8638 81.4223 53.3781 68.9541H58.6035C60.3995 68.9541 61.8555 67.4981 61.8555 65.7021C61.8555 63.9062 60.3995 62.4502 58.6035 62.4502H53.3781C54.8638 49.982 64.7798 40.0659 77.248 38.58V43.8057C77.248 45.6016 78.7041 47.0576 80.5 47.0576C82.2959 47.0576 83.752 45.6016 83.752 43.8057V38.58C96.2202 40.0659 106.136 49.982 107.622 62.4502H102.396C100.601 62.4502 99.1445 63.9062 99.1445 65.7021C99.1445 67.4981 100.601 68.9541 102.396 68.9541ZM77.248 25.5095V32.039C61.1901 33.5783 48.3759 46.3925 46.8366 62.4504H40.3074C41.8826 42.8034 57.6013 27.0848 77.248 25.5095ZM40.3074 68.9541H46.8369C48.3761 85.012 61.1903 97.8262 77.2483 99.3655V105.895C57.6013 104.32 41.8826 88.6009 40.3074 68.9541ZM83.752 105.895V99.3653C99.8099 97.826 112.624 85.0118 114.163 68.9539H120.693C119.117 88.6009 103.399 104.32 83.752 105.895Z" fill="white"/>
</g>
</svg>
