<svg width="16" height="16" viewBox="0 0 16 16" fill="none" xmlns="http://www.w3.org/2000/svg">
<path fill-rule="evenodd" clip-rule="evenodd" d="M4.00065 6.66602V4.66602C4.00065 3.60515 4.42208 2.58773 5.17222 1.83759C5.92237 1.08744 6.93979 0.666016 8.00065 0.666016C9.06152 0.666016 10.0789 1.08744 10.8291 1.83759C11.5792 2.58773 12.0007 3.60515 12.0007 4.66602V6.66602H12.6673C13.7719 6.66602 14.6673 7.56145 14.6673 8.66602V13.3327C14.6673 14.4373 13.7719 15.3327 12.6673 15.3327H3.33398C2.22941 15.3327 1.33398 14.4373 1.33398 13.3327V8.66602C1.33398 7.56145 2.22941 6.66602 3.33398 6.66602H4.00065ZM6.11503 2.7804C6.61513 2.2803 7.29341 1.99935 8.00065 1.99935C8.7079 1.99935 9.38617 2.2803 9.88627 2.7804C10.3864 3.28049 10.6673 3.95877 10.6673 4.66602V6.66602H5.33398V4.66602C5.33398 3.95877 5.61494 3.28049 6.11503 2.7804ZM3.33398 7.99935C2.96579 7.99935 2.66732 8.29783 2.66732 8.66602V13.3327C2.66732 13.7009 2.96579 13.9993 3.33398 13.9993H12.6673C13.0355 13.9993 13.334 13.7009 13.334 13.3327V8.66602C13.334 8.29783 13.0355 7.99935 12.6673 7.99935H3.33398Z" fill="#FFE400"/>
</svg>
