<svg width="512" height="428" viewBox="0 0 512 428" fill="none" xmlns="http://www.w3.org/2000/svg">
<path d="M466.736 138.575C492.607 211.209 480.087 294.478 428.722 356.552L451.35 379.179C536.58 278.563 531.903 127.865 437.019 32.9803C433.625 29.5861 430.079 26.6446 426.459 23.4767L426.46 138.575L466.736 138.575ZM383.995 32.6034C383.995 14.954 369.664 0.623047 352.015 0.623047H159.984C142.335 0.623047 128.004 14.954 128.004 32.6034L128.004 395.246C128.004 412.895 142.335 427.226 159.984 427.226L352.015 427.226C369.665 427.226 383.996 412.895 383.996 395.245L383.995 32.6034ZM160.059 395.32L159.984 32.6034H352.015V395.246L160.059 395.32ZM45.2627 289.425C19.3925 216.791 31.9125 133.522 83.2774 71.4469L60.65 48.8195C-24.5804 149.437 -19.9043 300.134 74.9802 395.019C78.3743 398.413 81.9198 401.355 85.5402 404.522L85.5395 289.425L45.2627 289.425Z" fill="#FFE400"/>
</svg>
