<svg width="24" height="29" viewBox="0 0 24 29" fill="none" xmlns="http://www.w3.org/2000/svg">
<path d="M21 7.18164H3C1.89 7.18164 1 8.07164 1 9.18164V21.1816C1 21.7121 1.21071 22.2208 1.58579 22.5959C1.96086 22.9709 2.46957 23.1816 3 23.1816H8V25.1816H16V23.1816H21C22.1 23.1816 22.99 22.2816 22.99 21.1816L23 9.18164C23 8.65121 22.7893 8.1425 22.4142 7.76743C22.0391 7.39235 21.5304 7.18164 21 7.18164ZM21 21.1816H3V9.18164H21V21.1816ZM16 15.1816L9 19.1816V11.1816L16 15.1816Z" fill="#FFE400"/>
</svg>
