<svg width="24" height="29" viewBox="0 0 24 29" fill="none" xmlns="http://www.w3.org/2000/svg">
<path d="M5.6714 9.92578C4.04852 9.92578 2.71844 11.2559 2.71844 12.8787C2.71844 14.5016 4.04852 15.8317 5.6714 15.8317C7.29428 15.8317 8.62436 14.5016 8.62436 12.8787C8.62436 11.2559 7.29428 9.92578 5.6714 9.92578ZM18.3213 9.92578C16.6984 9.92578 15.3684 11.2559 15.3684 12.8787C15.3684 14.5016 16.6984 15.8317 18.3213 15.8317C19.9442 15.8317 21.2743 14.5016 21.2743 12.8787C21.2743 11.2559 19.9442 9.92578 18.3213 9.92578ZM11.9964 11.1623C10.3735 11.1623 9.0434 12.4923 9.0434 14.1152C9.0434 15.7381 10.3735 17.0682 11.9964 17.0682C13.6192 17.0682 14.9493 15.7381 14.9493 14.1152C14.9493 12.4923 13.6192 11.1623 11.9964 11.1623ZM5.6714 11.2943C6.55508 11.2943 7.26212 11.9946 7.26212 12.8783C7.26212 13.7619 6.55508 14.4637 5.6714 14.4637C4.78772 14.4637 4.0874 13.7619 4.0874 12.8783C4.0874 11.9946 4.78772 11.2943 5.6714 11.2943ZM18.3213 11.2943C19.205 11.2943 19.9068 11.9946 19.9068 12.8783C19.9068 13.7619 19.205 14.4637 18.3213 14.4637C17.4376 14.4637 16.7359 13.7619 16.7359 12.8783C16.7359 11.9946 17.4376 11.2943 18.3213 11.2943ZM11.9964 12.5312C12.88 12.5312 13.5818 13.2315 13.5818 14.1152C13.5818 14.9989 12.88 15.7007 11.9964 15.7007C11.1127 15.7007 10.4109 14.9989 10.4109 14.1152C10.4109 13.2315 11.1127 12.5312 11.9964 12.5312ZM5.6714 16.3415C3.125 16.3415 1.0586 18.4136 1.0586 20.9595V22.7466C1.05716 23.1243 1.36196 23.4315 1.73972 23.433H7.38356V23.9831C7.38452 24.3589 7.68884 24.6642 8.06468 24.6656H15.928C16.3058 24.6671 16.613 24.3623 16.6144 23.9845V23.9831V23.433H22.253C22.6308 23.4344 22.938 23.1296 22.9394 22.7519C22.9394 22.7499 22.9394 22.7485 22.9394 22.7466V20.9595C22.9394 18.4136 20.8677 16.3415 18.3213 16.3415C16.7484 16.3415 15.364 17.1359 14.5312 18.3407C13.8026 17.8602 12.9324 17.5779 11.9964 17.5779C11.0604 17.5779 10.1925 17.8597 9.46532 18.3392C8.63108 17.1349 7.2434 16.3415 5.67092 16.3415H5.6714ZM5.6714 17.709C6.85748 17.709 7.82084 18.3935 8.381 19.3357C7.7834 20.0912 7.41908 21.0363 7.39028 22.0655H2.42612V20.9595C2.42612 19.1471 3.8594 17.709 5.6714 17.709ZM18.3213 17.709C20.1333 17.709 21.5719 19.1471 21.5719 20.9595V22.0655H16.6077C16.5784 21.0363 16.2141 20.0912 15.6156 19.3357C16.1752 18.3935 17.1352 17.709 18.3213 17.709ZM11.9964 18.9455C12.8724 18.9455 13.6562 19.2882 14.2375 19.8402C14.2423 19.845 14.2471 19.8503 14.2524 19.8551C14.7117 20.2976 15.0386 20.8688 15.1754 21.5163C15.1759 21.5187 15.1778 21.5207 15.1783 21.5231C15.1816 21.5384 15.1821 21.5543 15.185 21.5696C15.2239 21.7722 15.2479 21.981 15.2479 22.196V23.2967H8.74676V22.8239C8.75012 22.7979 8.75156 22.7725 8.75204 22.7466V22.1965C8.75204 22.1591 8.75636 22.1231 8.75732 22.0856C8.76212 21.9363 8.77748 21.7904 8.80148 21.6474C8.91956 20.9466 9.25604 20.3269 9.74564 19.8551C9.75428 19.8464 9.76292 19.8373 9.77108 19.8282C10.3509 19.2839 11.1285 18.9455 11.9973 18.9455H11.9964Z" fill="#FFE400"/>
</svg>
