<svg width="24" height="29" viewBox="0 0 24 29" fill="none" xmlns="http://www.w3.org/2000/svg">
<path d="M20.0954 8.87249H17.3956V7.97238C17.3956 7.47526 16.9926 7.07227 16.4955 7.07227H7.49609C6.99897 7.07227 6.59598 7.47526 6.59598 7.97238V8.87249H3.89621C3.39909 8.87249 2.99609 9.27548 2.99609 9.7726V12.4724C2.99609 16.3513 4.61483 18.6909 7.33321 18.7827C8.13863 20.167 9.5167 21.1224 11.096 21.3906V23.2715H9.29632V25.0711H14.6959V23.2715H12.8962V21.3906C14.4749 21.1212 15.8524 20.1659 16.659 18.7827C19.3768 18.6909 20.9961 16.3513 20.9961 12.4724V9.7726C20.9961 9.27548 20.5931 8.87249 20.096 8.87249M4.79632 12.4724V10.6727H6.59598V16.8196C4.99021 16.1427 4.79632 13.6419 4.79632 12.4729M11.9955 19.6722C10.0104 19.6722 8.39564 18.0574 8.39564 16.0723V8.87249H15.5954V16.0723C15.5954 18.0574 13.9806 19.6722 11.9955 19.6722ZM17.3956 16.8191V10.6722H19.1953V12.4718C19.1953 13.6408 19.0009 16.1416 17.3956 16.8185" fill="#FFE400"/>
</svg>
