<svg width="24" height="29" viewBox="0 0 24 29" fill="none" xmlns="http://www.w3.org/2000/svg">
<path fill-rule="evenodd" clip-rule="evenodd" d="M21.6004 16.182C21.6004 18.7281 20.589 21.1699 18.7886 22.9703C16.9883 24.7706 14.5465 25.782 12.0004 25.782C9.45431 25.782 7.01252 24.7706 5.21217 22.9703C3.41182 21.1699 2.40039 18.7281 2.40039 16.182C2.40039 13.636 3.41182 11.1942 5.21217 9.39381C7.01252 7.59346 9.45431 6.58203 12.0004 6.58203C14.5465 6.58203 16.9883 7.59346 18.7886 9.39381C20.589 11.1942 21.6004 13.636 21.6004 16.182ZM19.8004 16.182C19.8005 17.4716 19.4808 18.7411 18.87 19.8768C18.2593 21.0126 17.3764 21.9792 16.3005 22.6901C15.2246 23.4011 13.9892 23.8342 12.7049 23.9506C11.4206 24.0671 10.1275 23.8634 8.94121 23.3576C7.75496 22.8518 6.71261 22.0598 5.90747 21.0525C5.10232 20.0451 4.55949 18.8539 4.32757 17.5853C4.09565 16.3168 4.18186 15.0105 4.5785 13.7835C4.97514 12.5564 5.66983 11.4468 6.60039 10.554V11.0904C6.60035 11.642 6.70895 12.1882 6.92 12.6978C7.13104 13.2074 7.44039 13.6704 7.83039 14.0604L9.95199 16.182L9.60039 16.5336C9.37543 16.7587 9.24905 17.0638 9.24905 17.382C9.24905 17.7002 9.37543 18.0054 9.60039 18.2304L10.8724 19.5024C11.0397 19.6696 11.1725 19.868 11.2631 20.0865C11.3537 20.305 11.4003 20.5391 11.4004 20.7756V21.2112C11.4005 21.434 11.4627 21.6524 11.5799 21.8419C11.6971 22.0313 11.8647 22.1844 12.064 22.284L12.3952 22.4508C12.5362 22.5213 12.6898 22.5634 12.847 22.5745C13.0043 22.5856 13.1622 22.5657 13.3118 22.5158C13.4614 22.4658 13.5996 22.3869 13.7187 22.2835C13.8377 22.1801 13.9352 22.0543 14.0056 21.9132L15.7504 18.4236C15.9192 18.0858 15.9775 17.7034 15.917 17.3306C15.8564 16.9578 15.6802 16.6135 15.4132 16.3464L14.4868 15.42C14.3293 15.2624 14.131 15.1518 13.9142 15.1005C13.6974 15.0492 13.4706 15.0593 13.2592 15.1296L12.7984 15.2832C12.6614 15.3292 12.5124 15.3242 12.3788 15.269C12.2452 15.2139 12.1359 15.1124 12.0712 14.9832L11.716 14.2728C11.6613 14.1644 11.6423 14.0414 11.6616 13.9215C11.6808 13.8016 11.7374 13.6908 11.8233 13.6049C11.9092 13.5191 12.02 13.4625 12.1399 13.4432C12.2598 13.4239 12.3827 13.443 12.4912 13.4976L12.8056 13.6548C12.9721 13.7383 13.1557 13.7818 13.342 13.782H13.5676C13.7577 13.7821 13.9452 13.7369 14.1144 13.6503C14.2837 13.5637 14.43 13.4381 14.5412 13.2839C14.6524 13.1297 14.7254 12.9512 14.7541 12.7633C14.7828 12.5753 14.7665 12.3832 14.7064 12.2028L14.6248 11.958C14.587 11.8448 14.5839 11.723 14.6157 11.608C14.6476 11.493 14.713 11.3901 14.8036 11.3124L16.5316 9.83163C17.5428 10.5533 18.367 11.5061 18.9356 12.6107C19.5041 13.7153 19.8006 14.9397 19.8004 16.182Z" fill="#FFE400"/>
</svg>
