<svg width="24" height="29" viewBox="0 0 24 29" fill="none" xmlns="http://www.w3.org/2000/svg">
<g clip-path="url(#clip0_2225_467)">
<path d="M12.79 25.1826L3 15.3926V17.3926C3 17.9226 3.21 18.4326 3.59 18.8026L11.38 26.5926C12.16 27.3726 13.43 27.3726 14.21 26.5926L20.42 20.3826C21.2 19.6026 21.2 18.3326 20.42 17.5526L12.79 25.1826Z" fill="#FFE400"/>
<path d="M11.38 21.5916C11.77 21.9816 12.28 22.1816 12.79 22.1816C13.3 22.1816 13.81 21.9816 14.2 21.5916L20.41 15.3816C21.19 14.6016 21.19 13.3316 20.41 12.5516L12.62 4.76164C12.25 4.39164 11.74 4.18164 11.21 4.18164H5C3.9 4.18164 3 5.08164 3 6.18164V12.3916C3 12.9216 3.21 13.4316 3.59 13.8016L11.38 21.5916ZM5 6.18164H11.21L19 13.9716L12.79 20.1816L5 12.3916V6.18164Z" fill="#FFE400"/>
<path d="M7.25 9.68164C7.94036 9.68164 8.5 9.122 8.5 8.43164C8.5 7.74128 7.94036 7.18164 7.25 7.18164C6.55964 7.18164 6 7.74128 6 8.43164C6 9.122 6.55964 9.68164 7.25 9.68164Z" fill="#FFE400"/>
</g>
<defs>
<clipPath id="clip0_2225_467">
<rect width="24" height="24" fill="white" transform="translate(0 4.18164)"/>
</clipPath>
</defs>
</svg>
