<svg width="24" height="29" viewBox="0 0 24 29" fill="none" xmlns="http://www.w3.org/2000/svg">
<path d="M12 16.9316V22.9316H4.5V16.9316H12ZM12 15.4316H4.5C4.10218 15.4316 3.72064 15.5897 3.43934 15.871C3.15804 16.1523 3 16.5338 3 16.9316V22.9316C3 23.3295 3.15804 23.711 3.43934 23.9923C3.72064 24.2736 4.10218 24.4316 4.5 24.4316H12C12.3978 24.4316 12.7794 24.2736 13.0607 23.9923C13.342 23.711 13.5 23.3295 13.5 22.9316V16.9316C13.5 16.5338 13.342 16.1523 13.0607 15.871C12.7794 15.5897 12.3978 15.4316 12 15.4316ZM20.25 8.68164V12.4316H12.75V8.68164H20.25ZM20.25 7.18164H12.75C12.3522 7.18164 11.9706 7.33968 11.6893 7.62098C11.408 7.90228 11.25 8.28382 11.25 8.68164V12.4316C11.25 12.8295 11.408 13.211 11.6893 13.4923C11.9706 13.7736 12.3522 13.9316 12.75 13.9316H20.25C20.6478 13.9316 21.0294 13.7736 21.3107 13.4923C21.592 13.211 21.75 12.8295 21.75 12.4316V8.68164C21.75 8.28382 21.592 7.90228 21.3107 7.62098C21.0294 7.33968 20.6478 7.18164 20.25 7.18164ZM20.25 16.9316V20.6816H16.5V16.9316H20.25ZM20.25 15.4316H16.5C16.1022 15.4316 15.7206 15.5897 15.4393 15.871C15.158 16.1523 15 16.5338 15 16.9316V20.6816C15 21.0795 15.158 21.461 15.4393 21.7423C15.7206 22.0236 16.1022 22.1816 16.5 22.1816H20.25C20.6478 22.1816 21.0294 22.0236 21.3107 21.7423C21.592 21.461 21.75 21.0795 21.75 20.6816V16.9316C21.75 16.5338 21.592 16.1523 21.3107 15.871C21.0294 15.5897 20.6478 15.4316 20.25 15.4316ZM8.25 8.68164V12.4316H4.5V8.68164H8.25ZM8.25 7.18164H4.5C4.10218 7.18164 3.72064 7.33968 3.43934 7.62098C3.15804 7.90228 3 8.28382 3 8.68164V12.4316C3 12.8295 3.15804 13.211 3.43934 13.4923C3.72064 13.7736 4.10218 13.9316 4.5 13.9316H8.25C8.64782 13.9316 9.02936 13.7736 9.31066 13.4923C9.59196 13.211 9.75 12.8295 9.75 12.4316V8.68164C9.75 8.28382 9.59196 7.90228 9.31066 7.62098C9.02936 7.33968 8.64782 7.18164 8.25 7.18164Z" fill="#FFE400"/>
</svg>
