<svg width="25" height="25" viewBox="0 0 25 25" fill="none" xmlns="http://www.w3.org/2000/svg">
<path d="M21.4998 4.8483C21.4998 4.47996 21.2015 4.18164 20.8331 4.18164H4.16666C3.79832 4.18164 3.5 4.47996 3.5 4.8483C3.5 5.09412 3.635 5.30662 3.83333 5.42246V15.9407C3.635 16.0557 3.5 16.2691 3.5 16.5149C3.5 16.8832 3.79832 17.1816 4.16666 17.1816H11.8333V18.4415C11.63 18.6249 11.5 18.8865 11.5 19.1815C11.5 19.734 11.9475 20.1815 12.5 20.1815C13.0525 20.1815 13.5 19.734 13.5 19.1815C13.5 18.8865 13.37 18.624 13.1667 18.4415V17.1816H20.8333C21.2017 17.1816 21.5 16.8832 21.5 16.5149C21.5 16.2691 21.365 16.0566 21.1667 15.9407V5.42246C21.365 5.30746 21.4998 5.09412 21.4998 4.8483ZM5.16675 15.8481V5.51474H19.8332V15.8481H5.16675Z" fill="#FFE400"/>
<path d="M16.1719 10.8391C16.1311 10.8007 16.1069 10.7457 16.1069 10.6774C16.1069 10.6191 16.1311 10.5624 16.1736 10.5224L16.5077 10.2082C16.7327 9.99658 16.7827 9.65742 16.6286 9.38909L15.7153 7.80744C15.5603 7.53994 15.2428 7.41327 14.9453 7.50244L14.5378 7.62494C14.4728 7.64494 14.4011 7.6366 14.3353 7.59744C14.2786 7.56494 14.2378 7.5091 14.2228 7.44577L14.1244 7.02828C14.0536 6.72744 13.7844 6.51411 13.4753 6.51411H11.6486C11.3395 6.51411 11.0703 6.72744 10.9994 7.02828L10.9011 7.44577C10.8861 7.5091 10.8453 7.56494 10.7795 7.6041C10.722 7.63744 10.6536 7.64577 10.5903 7.62577L10.1786 7.50244C9.88197 7.41244 9.56363 7.53994 9.40946 7.80744L8.49615 9.38909C8.34115 9.65742 8.39115 9.99576 8.61698 10.2082L8.95114 10.5224C8.99364 10.5624 9.01781 10.6191 9.01781 10.6866C9.01781 10.7449 8.99364 10.8016 8.95114 10.8416L8.61698 11.1557C8.39198 11.3674 8.34197 11.7066 8.49615 11.9749L9.40946 13.5566C9.56446 13.8249 9.8828 13.9516 10.1786 13.8616L10.5903 13.7382C10.6536 13.7191 10.7228 13.7282 10.7895 13.7666C10.8453 13.7991 10.8861 13.8541 10.9011 13.9174L10.9994 14.3357C11.0703 14.6365 11.3395 14.8499 11.6486 14.8499H13.4753C13.7844 14.8499 14.0536 14.6365 14.1244 14.3357L14.2228 13.9174C14.2378 13.854 14.2786 13.7991 14.3428 13.7616C14.4011 13.7274 14.4694 13.7191 14.5336 13.7382L14.9444 13.8615C15.2411 13.9507 15.5594 13.8249 15.7136 13.5565L16.6269 11.9749C16.7819 11.7066 16.7319 11.3682 16.5061 11.1557L16.1694 10.8391L16.1719 10.8391ZM15.2111 11.7632L14.8236 12.434C14.4336 12.344 14.0194 12.4057 13.6669 12.6115C13.3236 12.8107 13.0669 13.1357 12.9519 13.5149H12.1753C12.0603 13.1365 11.8036 12.8107 11.4561 12.609C11.1078 12.4057 10.6928 12.3432 10.3036 12.434L9.91615 11.7624C10.1945 11.4757 10.3537 11.0857 10.3537 10.6757C10.3537 10.2749 10.1953 9.88575 9.91615 9.59907L10.3036 8.92742C10.692 9.01742 11.1053 8.95659 11.4611 8.74992C11.8036 8.54993 12.0595 8.22494 12.1753 7.84743H12.952C13.067 8.22575 13.3236 8.55076 13.6719 8.75408C14.0194 8.95575 14.4328 9.01825 14.8228 8.92742L15.2103 9.59907C14.9319 9.88574 14.7728 10.2757 14.7728 10.6891C14.7728 11.0891 14.9311 11.4774 15.2103 11.7632L15.2111 11.7632Z" fill="#FFE400"/>
<path d="M13.6266 10.6818C13.6266 12.1709 11.3932 12.1709 11.3932 10.6818C11.3932 9.19262 13.6266 9.19262 13.6266 10.6818Z" fill="#FFE400"/>
</svg>
